<?xml version="1.0" encoding="UTF-8" ?>
<!DOCTYPE svg PUBLIC "-//W3C//DTD SVG 1.1//EN" "http://www.w3.org/Graphics/SVG/1.1/DTD/svg11.dtd">
<svg width="1044pt" height="1132pt" viewBox="0 0 1044 1132" version="1.1" xmlns="http://www.w3.org/2000/svg">
<g id="#050708ff">
<path fill="#050708" opacity="1.00" d=" M 464.59 1.79 C 484.33 -0.22 504.49 -1.11 524.06 2.87 C 539.41 6.28 554.79 10.58 568.56 18.38 C 572.88 20.72 576.72 23.83 581.02 26.21 C 589.61 31.06 598.61 35.47 605.97 42.15 C 609.88 45.73 613.44 50.38 613.74 55.88 C 613.97 58.72 612.98 61.43 612.02 64.04 C 613.61 67.49 615.00 71.09 615.51 74.88 C 616.66 81.46 614.69 88.04 612.56 94.21 C 620.78 107.00 627.87 120.63 632.92 134.98 C 640.00 160.79 644.93 187.23 646.99 213.92 C 648.47 236.61 649.11 259.40 647.55 282.10 C 645.05 317.76 637.02 354.41 615.99 384.00 C 601.16 404.46 580.34 421.79 555.40 427.90 C 552.91 428.53 550.38 428.99 547.86 429.45 C 551.93 445.48 555.11 461.77 560.36 477.48 C 560.72 478.81 561.48 479.99 562.53 480.90 C 562.62 484.79 565.04 488.75 563.33 492.59 C 562.61 494.43 560.81 495.43 559.24 496.47 C 556.24 505.95 552.38 515.14 548.18 524.16 C 545.06 530.74 541.50 537.19 536.84 542.82 C 530.69 550.30 522.41 555.73 516.55 563.47 C 512.60 568.65 510.04 574.74 508.14 580.93 C 506.97 584.50 505.50 588.56 501.86 590.27 C 500.21 590.93 498.64 589.58 497.87 588.24 C 495.39 584.27 496.12 579.28 497.45 575.05 C 499.15 569.93 501.73 565.14 504.65 560.62 C 509.88 552.68 517.50 546.82 524.54 540.60 C 531.81 534.21 536.94 525.86 541.50 517.43 C 545.61 509.78 549.58 502.05 553.54 494.33 C 549.74 489.99 548.91 484.15 547.37 478.81 C 543.98 466.50 541.96 453.74 542.31 440.95 C 542.34 437.18 543.72 433.62 544.66 430.02 C 515.88 433.84 485.67 424.39 464.38 404.63 C 461.34 401.56 456.15 399.18 456.94 394.06 C 457.90 393.67 458.87 393.30 459.86 392.97 C 460.76 393.72 461.56 394.66 461.29 395.91 L 462.75 395.49 C 462.08 394.27 461.48 392.89 461.10 391.58 C 462.77 392.27 464.55 392.88 466.03 393.98 C 474.99 402.65 486.20 408.77 497.80 413.19 C 514.76 419.46 533.68 420.54 551.13 415.66 C 570.42 410.43 587.37 398.30 599.96 382.94 C 618.93 359.86 628.84 330.64 633.24 301.41 C 637.08 276.43 636.32 251.06 635.26 225.90 C 633.37 188.44 627.74 150.43 611.83 116.14 C 608.64 109.47 604.88 103.08 600.89 96.86 C 595.49 96.34 590.12 95.38 584.93 93.80 C 582.38 93.00 579.75 92.36 577.07 92.68 C 548.01 94.46 518.93 95.85 489.88 97.87 C 470.69 99.37 450.31 103.27 435.51 116.51 C 423.68 127.47 421.62 144.58 412.22 157.20 C 408.12 163.12 401.12 166.00 396.62 171.57 C 387.12 181.62 385.56 195.99 383.37 209.01 C 383.43 220.17 388.37 231.29 385.58 242.45 C 384.30 247.75 379.71 251.32 374.82 253.15 C 375.26 253.93 375.70 254.71 376.15 255.50 C 374.13 256.87 372.14 255.91 370.00 255.84 C 366.44 249.81 359.94 245.89 352.95 245.51 C 343.90 244.98 334.03 247.93 328.26 255.28 C 321.40 263.85 319.46 275.38 320.26 286.09 C 321.16 296.50 324.66 307.28 332.41 314.62 C 338.39 320.42 347.64 322.20 355.42 319.31 C 357.16 316.92 358.49 321.00 359.69 322.10 C 359.15 320.37 358.67 318.60 358.27 316.85 C 359.74 317.70 361.21 318.59 362.73 319.39 C 369.74 333.90 378.36 347.76 389.44 359.53 C 395.88 366.64 403.95 372.07 412.42 376.49 C 416.86 379.16 421.65 381.82 424.63 386.22 C 423.64 386.87 422.66 387.52 421.68 388.18 C 422.29 389.21 422.91 390.24 423.53 391.29 C 422.95 391.31 421.81 391.36 421.23 391.38 L 421.77 393.07 C 413.82 391.26 407.46 386.14 400.95 381.59 C 392.41 375.81 384.22 369.42 377.24 361.80 C 374.48 359.03 372.42 355.48 368.93 353.52 C 361.39 358.85 351.56 358.42 342.95 356.48 C 331.38 353.77 320.42 348.83 310.15 342.91 C 297.82 335.39 291.75 320.99 290.27 307.12 C 289.69 299.27 286.69 291.89 283.09 284.98 C 278.59 276.28 274.54 267.25 272.55 257.61 C 270.25 247.34 269.87 236.76 269.91 226.27 C 263.74 224.02 261.23 217.42 257.29 212.71 C 245.02 198.06 237.36 177.97 242.28 158.88 C 246.69 142.72 253.07 127.17 260.05 111.97 C 266.35 98.70 273.62 85.89 282.07 73.86 C 291.54 61.51 302.52 49.73 316.59 42.62 C 332.96 34.05 350.45 27.86 368.04 22.30 C 399.52 12.61 431.83 5.37 464.59 1.79 M 379.03 33.00 C 357.29 39.14 334.82 45.01 316.00 58.04 C 301.91 68.30 291.01 82.32 282.29 97.28 C 272.51 113.97 265.45 132.03 258.12 149.88 C 250.15 170.34 255.17 195.34 271.04 210.66 C 272.89 194.14 275.92 177.71 280.81 161.80 C 281.05 160.83 281.65 160.18 282.61 159.84 C 284.63 183.59 279.56 207.38 282.30 231.10 C 283.85 245.40 288.35 259.29 294.95 272.04 C 298.20 278.68 302.83 284.68 304.81 291.90 C 307.97 301.27 307.06 311.95 312.62 320.47 C 318.10 328.54 327.63 332.26 336.48 335.36 C 343.97 338.17 352.03 340.49 360.10 339.12 C 359.45 337.90 358.88 336.60 359.37 335.21 C 358.68 333.83 357.96 332.47 357.24 331.12 C 353.13 334.30 347.51 332.83 342.88 331.78 C 336.51 330.48 331.30 326.43 326.08 322.82 C 315.23 314.54 309.26 301.18 307.77 287.85 C 306.18 273.72 309.22 258.53 318.28 247.29 C 324.10 239.95 332.80 235.15 342.04 233.76 C 342.84 209.99 347.86 186.55 354.73 163.86 C 363.48 135.94 375.25 108.50 393.18 85.17 C 403.16 71.74 417.62 62.47 432.64 55.55 C 456.07 44.89 481.46 39.11 506.95 36.10 C 524.03 34.16 541.28 33.62 558.44 34.86 C 569.58 35.83 580.18 39.56 590.87 42.60 C 583.44 36.05 573.35 34.20 565.09 29.05 C 552.38 22.35 538.46 18.34 524.48 15.32 C 517.14 13.46 509.51 13.50 502.00 13.03 C 460.13 11.56 418.99 21.57 379.03 33.00 Z" />
<path fill="#050708" opacity="1.00" d=" M 429.96 28.13 C 434.43 26.90 438.90 29.07 443.05 30.54 C 445.81 31.54 449.73 33.49 448.59 37.12 C 446.34 40.27 441.90 38.28 439.29 36.67 C 435.94 34.17 431.84 32.05 429.96 28.13 Z" />
<path fill="#050708" opacity="1.00" d=" M 391.65 40.70 C 395.41 39.96 399.09 41.35 402.61 42.51 C 406.12 43.80 409.67 45.09 412.86 47.07 C 415.72 48.58 415.67 53.44 412.61 54.67 C 405.94 54.71 400.93 49.75 395.74 46.27 C 393.69 45.03 391.82 43.24 391.65 40.70 Z" />
<path fill="#050708" opacity="1.00" d=" M 353.22 66.37 C 355.08 65.74 357.08 66.32 358.96 66.60 C 365.10 67.96 371.07 70.04 376.95 72.25 C 380.22 73.55 383.69 75.15 385.69 78.20 C 386.77 79.70 386.96 82.37 384.92 83.17 C 382.29 84.20 379.42 83.22 377.20 81.73 C 369.47 76.75 361.08 72.96 353.04 68.54 C 351.79 68.38 352.16 66.47 353.22 66.37 Z" />
<path fill="#050708" opacity="1.00" d=" M 325.71 96.87 C 333.43 96.80 340.42 100.85 347.56 103.33 C 352.48 105.65 358.61 106.41 362.14 110.96 C 363.53 112.93 364.30 116.37 361.87 117.89 C 358.59 119.67 354.41 118.65 351.40 116.75 C 344.75 112.39 338.07 108.07 331.74 103.25 C 329.46 101.41 326.89 99.67 325.71 96.87 Z" />
<path fill="#050708" opacity="1.00" d=" M 305.29 133.30 C 310.99 131.16 317.28 133.34 322.69 135.48 C 328.04 137.95 334.20 141.64 335.23 147.97 C 336.18 152.04 330.52 154.97 327.42 152.56 C 320.58 147.98 313.71 143.44 306.49 139.48 C 304.20 138.47 302.52 134.78 305.29 133.30 Z" />
<path fill="#050708" opacity="1.00" d=" M 452.57 154.50 C 459.70 150.77 468.36 149.33 476.07 152.08 C 480.30 153.54 484.24 156.64 485.64 161.02 C 486.54 163.75 484.79 167.07 481.89 167.55 C 474.60 168.27 467.05 166.70 459.94 169.04 C 453.41 171.09 448.57 176.35 444.69 181.76 C 441.90 185.77 438.41 189.95 438.84 195.18 C 436.45 196.86 433.25 195.07 432.27 192.60 C 430.35 188.19 431.45 183.20 432.83 178.80 C 436.16 168.71 443.06 159.50 452.57 154.50 Z" />
<path fill="#050708" opacity="1.00" d=" M 573.95 158.91 C 587.53 152.76 603.90 157.85 614.38 167.65 C 618.42 171.56 621.22 177.26 620.11 182.98 C 619.37 187.46 613.82 189.90 609.81 188.26 C 607.14 187.02 605.40 184.52 603.96 182.07 C 597.95 170.21 582.69 163.84 570.07 168.04 C 568.07 168.52 568.45 170.77 568.22 172.31 C 566.03 171.65 565.15 169.09 565.74 167.04 C 566.85 163.12 570.39 160.51 573.95 158.91 Z" />
<path fill="#050708" opacity="1.00" d=" M 583.39 194.51 C 586.92 193.29 590.68 195.31 592.87 198.06 C 600.60 208.14 600.86 223.64 592.34 233.36 C 589.52 236.79 583.77 238.14 580.39 234.77 C 576.56 230.94 575.64 225.25 575.12 220.08 C 574.71 213.28 575.66 206.26 578.45 200.00 C 579.53 197.77 581.03 195.50 583.39 194.51 Z" />
<path fill="#050708" opacity="1.00" d=" M 468.59 196.69 C 471.58 195.43 475.06 196.71 476.73 199.42 C 480.53 205.15 481.51 212.27 481.75 219.00 C 481.57 225.11 480.84 231.91 476.59 236.65 C 473.29 240.18 467.41 239.01 464.51 235.57 C 455.98 225.98 456.12 210.69 463.57 200.52 C 464.87 198.84 466.56 197.40 468.59 196.69 Z" />
<path fill="#050708" opacity="1.00" d=" M 546.07 235.21 C 555.77 234.56 565.57 241.67 568.45 251.01 C 571.77 261.14 568.26 273.29 559.63 279.69 C 554.38 283.66 547.47 284.98 541.03 284.05 C 532.14 282.83 524.02 278.40 516.91 273.12 C 511.30 269.10 516.47 259.02 522.97 260.65 C 525.75 261.76 527.83 264.07 530.32 265.69 C 536.22 269.78 543.56 274.28 550.98 271.80 C 557.32 269.70 560.26 261.99 558.23 255.90 C 556.04 249.34 550.55 244.61 544.97 240.89 C 542.58 239.62 543.88 235.97 546.07 235.21 Z" />
<path fill="#050708" opacity="1.00" d=" M 335.43 268.32 C 337.05 268.40 338.46 267.63 339.94 267.08 C 348.71 265.77 357.55 268.64 365.01 273.15 C 373.17 277.92 379.96 284.64 386.07 291.79 C 384.84 291.75 383.62 291.77 382.41 291.86 C 381.62 291.33 380.83 290.80 380.05 290.27 C 381.77 292.09 383.59 293.84 384.76 296.10 C 384.08 295.84 382.72 295.33 382.04 295.07 C 382.61 295.95 383.00 296.91 383.19 297.95 C 381.98 297.03 380.62 296.29 379.08 296.20 C 376.68 295.05 375.29 292.51 373.08 291.04 C 362.42 283.26 350.10 277.08 336.81 275.77 C 334.76 275.94 335.03 273.20 333.29 272.75 C 333.33 272.05 333.42 270.67 333.46 269.98 C 334.11 269.42 334.77 268.87 335.43 268.32 Z" />
<path fill="#050708" opacity="1.00" d=" M 477.96 302.87 C 490.98 298.98 504.93 300.39 517.90 303.75 C 530.40 306.97 542.93 310.81 555.95 310.92 C 563.80 311.54 571.56 309.59 579.40 310.09 C 578.99 311.99 577.09 312.59 575.56 313.34 C 568.47 316.53 560.68 317.67 553.00 318.39 C 554.75 331.43 555.81 344.59 558.40 357.51 C 561.61 355.77 565.22 354.17 568.96 354.70 C 571.14 354.89 573.14 356.72 573.15 358.98 C 573.35 363.77 570.09 367.92 566.13 370.25 C 559.13 374.49 550.93 375.87 543.11 377.87 C 525.63 381.98 507.16 385.16 489.42 380.69 C 476.30 377.58 463.71 369.94 457.00 357.95 C 450.91 347.37 449.39 333.83 454.52 322.56 C 458.83 312.87 467.89 305.82 477.96 302.87 M 483.96 317.15 C 476.15 319.43 468.57 325.09 467.06 333.53 C 481.32 331.37 495.69 330.07 510.06 328.76 C 521.22 327.81 532.36 326.07 543.61 326.43 C 543.83 323.99 544.10 321.56 544.56 319.15 C 537.01 319.12 529.46 318.80 521.98 317.75 C 509.44 316.06 496.39 313.45 483.96 317.15 M 483.03 351.97 C 480.08 353.14 476.73 354.08 474.73 356.73 C 480.76 362.34 488.49 365.92 496.61 367.23 C 512.43 369.90 528.39 366.26 543.70 362.42 C 542.94 357.46 540.39 352.53 535.79 350.17 C 528.73 346.18 519.03 348.31 514.42 355.03 C 513.61 351.07 509.67 349.03 505.97 348.60 C 498.19 347.68 490.37 349.48 483.03 351.97 Z" />
<path fill="#050708" opacity="1.00" d=" M 387.57 389.56 C 389.52 387.71 392.35 387.62 394.74 386.68 L 394.11 387.27 C 398.53 387.88 402.41 391.47 402.55 396.09 C 402.58 402.26 399.91 408.06 397.27 413.51 C 393.66 420.40 389.95 427.53 383.97 432.70 C 402.40 450.40 422.85 466.07 445.00 478.87 C 457.19 486.17 470.15 494.01 477.25 506.81 C 482.49 515.96 481.96 527.12 479.20 536.98 C 477.05 545.80 472.47 554.61 474.36 563.92 C 476.07 571.39 482.97 575.72 488.52 580.25 C 504.43 593.22 516.89 611.34 520.33 631.83 C 521.17 637.71 521.13 644.10 518.27 649.47 C 516.89 651.71 512.98 650.67 512.58 648.18 C 510.83 641.80 511.12 635.05 509.24 628.70 C 505.14 614.09 495.97 601.31 484.84 591.19 C 478.08 585.11 469.91 580.00 465.76 571.60 C 461.49 563.10 463.18 553.17 465.79 544.45 C 468.62 535.22 472.03 525.49 469.43 515.78 C 458.12 530.02 446.73 544.21 435.75 558.72 C 429.74 566.48 424.74 574.99 418.39 582.48 C 416.76 584.34 417.93 587.41 415.88 589.07 C 413.86 591.45 410.27 592.12 407.57 590.52 C 401.86 587.27 398.30 581.45 394.89 576.04 C 388.04 564.47 382.82 552.06 377.37 539.80 C 370.53 524.22 362.12 509.36 352.82 495.12 C 345.01 482.70 335.23 471.71 327.01 459.59 C 320.93 464.90 314.23 469.46 307.18 473.38 C 273.91 491.68 237.30 502.45 202.58 517.51 C 176.19 528.89 150.19 543.10 130.57 564.54 C 108.71 588.22 95.07 618.06 84.43 648.15 C 64.87 703.12 49.38 759.44 35.08 815.98 C 29.56 837.48 25.43 859.32 19.36 880.68 C 30.82 880.53 41.72 884.57 53.00 885.92 C 93.14 891.27 133.08 899.82 170.95 914.39 C 175.21 915.84 176.73 920.61 176.24 924.73 C 178.74 923.93 181.26 923.21 183.81 922.55 C 182.39 918.90 181.91 914.98 182.27 911.10 C 183.58 890.67 185.01 870.24 187.30 849.90 C 189.45 832.59 191.36 815.23 193.46 797.92 C 191.28 787.86 187.28 778.28 183.18 768.87 C 181.70 765.38 179.89 762.00 179.11 758.27 C 180.59 758.50 181.83 759.16 182.84 760.25 C 188.48 765.73 192.86 772.35 196.70 779.18 C 198.10 772.17 199.36 764.70 204.09 759.04 C 208.41 765.11 208.45 772.88 209.08 780.00 C 210.53 803.17 208.42 826.35 207.13 849.48 C 205.14 872.72 202.19 895.95 197.33 918.77 C 256.63 902.11 316.19 886.38 375.76 870.70 C 379.47 864.63 385.05 859.31 392.10 857.54 C 396.86 856.44 402.62 857.07 406.05 860.88 C 404.36 861.86 402.65 862.83 400.96 863.82 C 416.74 860.12 432.07 854.68 447.94 851.33 C 450.96 850.58 453.67 848.97 456.49 847.71 C 473.20 840.06 490.57 834.02 507.97 828.17 C 520.68 824.06 533.14 819.16 546.09 815.86 C 553.35 813.97 561.40 812.35 568.49 815.71 C 572.17 817.14 574.15 820.62 576.34 823.64 C 584.53 829.70 592.29 836.34 599.74 843.30 C 601.95 845.23 603.41 849.81 600.06 851.36 C 595.28 851.28 591.61 847.69 588.52 844.45 C 583.99 839.29 578.94 834.60 574.63 829.25 C 572.76 829.19 570.29 829.73 569.28 827.68 C 567.41 824.79 564.68 822.22 561.07 821.98 C 552.51 821.12 544.65 825.33 536.60 827.48 C 510.13 835.04 484.00 843.74 457.62 851.61 C 458.07 853.52 458.49 856.21 456.16 857.10 C 450.12 859.80 443.66 861.45 437.30 863.20 C 420.48 867.24 403.72 871.52 387.00 875.93 C 385.33 879.08 384.06 882.49 383.85 886.09 C 382.79 898.01 385.70 909.80 388.79 921.22 C 391.24 929.93 393.95 939.03 400.08 945.95 C 402.75 948.86 406.35 951.65 410.47 951.59 C 426.23 943.83 441.68 935.42 457.43 927.65 C 460.11 926.19 462.11 928.86 463.77 930.53 C 472.78 929.05 481.80 926.47 489.62 921.63 C 496.07 917.95 502.31 913.22 509.88 912.25 C 519.21 910.97 528.32 914.44 536.61 918.37 C 544.07 921.79 551.13 926.23 559.06 928.54 C 562.46 929.43 566.86 930.20 569.61 927.38 C 572.49 924.03 571.54 919.02 569.35 915.58 C 564.78 908.25 556.95 903.69 548.98 900.90 C 540.94 898.11 532.59 896.23 524.19 894.89 C 518.60 893.97 512.77 894.24 507.36 892.35 C 504.82 891.51 504.85 887.11 507.77 886.91 C 518.17 884.89 528.57 888.26 538.62 890.64 C 551.85 894.01 565.72 899.24 574.15 910.61 C 581.46 905.09 589.81 912.24 597.77 910.94 C 606.90 863.72 617.88 816.84 630.77 770.50 C 639.51 738.69 649.54 707.26 659.63 675.86 C 662.28 668.41 665.31 660.68 671.23 655.17 C 676.60 650.05 683.69 647.23 690.82 645.56 C 702.77 642.65 714.98 640.97 727.06 638.70 C 720.51 624.63 715.07 610.09 709.70 595.55 C 702.46 576.55 694.09 557.08 678.80 543.07 C 654.61 520.43 621.14 511.96 595.65 491.13 L 596.67 489.91 C 595.27 489.87 593.88 489.83 592.49 489.79 C 592.30 497.53 592.18 505.37 590.44 512.94 C 589.80 515.79 586.63 516.30 584.17 516.24 C 580.32 527.09 570.71 534.11 564.17 543.16 C 557.86 552.88 559.37 565.03 560.03 576.00 C 560.77 580.66 554.29 582.64 551.27 579.79 C 544.58 574.29 537.71 568.95 531.68 562.71 C 523.71 566.72 519.23 575.04 512.68 580.72 C 515.16 572.73 520.43 566.00 525.25 559.28 C 527.37 556.22 531.12 553.35 535.01 555.05 C 540.31 557.19 544.19 561.66 548.89 564.80 C 548.86 556.55 549.76 548.01 553.76 540.66 C 558.13 532.38 566.61 527.33 571.17 519.19 C 573.97 514.97 575.82 509.89 580.00 506.77 C 580.52 498.85 582.27 491.00 582.21 483.05 C 582.02 476.61 576.23 472.77 571.53 469.42 C 566.85 466.32 563.26 461.96 558.88 458.51 L 558.70 457.98 C 558.82 457.32 559.06 455.99 559.18 455.32 C 568.05 457.69 575.97 462.52 583.76 467.21 C 591.00 471.60 593.92 480.77 592.41 488.81 C 594.26 489.16 596.15 489.50 597.93 490.21 C 611.58 496.76 625.87 501.80 640.07 507.00 C 653.94 512.61 668.19 517.82 680.59 526.38 C 695.02 536.31 706.53 550.25 713.99 566.07 C 722.41 583.83 727.23 603.00 734.97 621.05 C 737.13 626.14 740.47 630.65 742.30 635.90 C 838.39 619.40 935.61 609.41 1033.07 606.42 C 1036.23 606.55 1040.48 605.19 1042.59 608.38 C 1045.01 611.52 1042.86 615.40 1042.52 618.86 C 1030.96 688.26 1020.63 757.86 1008.64 827.19 C 1005.13 849.13 1000.57 870.89 997.34 892.88 C 995.46 904.49 992.95 916.40 986.47 926.41 C 982.98 931.87 978.19 936.55 972.38 939.47 C 964.56 943.62 955.65 944.71 947.03 946.01 C 924.49 949.28 901.76 950.87 879.15 953.57 C 839.57 958.06 799.99 962.65 760.40 967.04 C 763.00 991.94 761.91 1017.05 759.84 1041.95 C 759.24 1049.74 757.52 1057.62 753.27 1064.29 C 748.18 1072.63 740.65 1079.09 733.08 1085.11 C 724.33 1091.91 715.51 1098.98 705.10 1103.08 C 695.24 1106.88 684.72 1109.97 674.04 1109.03 C 675.37 1115.22 677.59 1121.67 675.80 1128.01 C 675.21 1130.83 671.76 1132.88 669.15 1131.28 C 667.31 1129.84 666.07 1127.80 665.06 1125.74 C 662.41 1118.74 662.10 1111.14 660.69 1103.85 C 657.27 1081.41 655.10 1058.74 655.34 1036.02 C 655.50 1016.72 656.32 997.36 659.48 978.29 C 638.72 980.62 617.94 983.12 597.03 983.46 C 595.03 983.68 593.30 982.65 591.68 981.68 C 590.07 983.06 588.26 984.44 586.01 984.24 C 559.62 984.31 534.54 974.61 510.71 964.22 C 497.85 958.67 485.23 952.55 472.00 947.93 C 465.24 945.52 458.48 943.07 451.98 940.03 C 443.68 944.38 435.37 948.72 427.07 953.08 C 424.79 954.18 424.38 957.02 422.63 958.69 C 419.74 961.49 415.86 963.16 411.95 963.99 C 409.36 964.57 406.51 963.89 404.09 965.13 C 363.40 986.52 322.59 1007.67 281.88 1029.02 C 258.66 1041.17 235.44 1053.30 212.09 1065.18 C 193.82 1074.41 175.54 1083.90 156.06 1090.34 C 154.49 1098.74 158.46 1107.48 155.50 1115.65 C 154.09 1119.79 147.16 1120.76 146.04 1115.96 C 144.07 1108.33 147.13 1100.58 148.08 1093.00 C 130.04 1098.31 110.81 1101.02 92.16 1097.54 C 79.46 1095.14 68.18 1087.90 59.16 1078.85 C 47.36 1066.96 38.17 1052.55 32.04 1036.97 C 25.73 1021.09 23.15 1004.00 22.21 987.02 C 21.12 961.67 21.72 936.26 23.42 910.95 C 17.47 910.88 11.04 910.44 6.05 906.85 C 1.49 903.61 -1.05 897.44 0.81 892.02 C 1.43 889.45 3.85 887.68 4.08 885.00 C 6.52 863.38 11.66 842.20 16.79 821.10 C 26.77 778.98 38.73 737.36 51.21 695.92 C 61.65 662.37 72.70 628.80 88.50 597.34 C 102.16 570.03 123.11 546.50 148.63 529.74 C 178.48 509.88 212.78 498.52 246.20 486.29 C 264.29 479.56 282.52 473.10 300.01 464.91 C 307.90 461.27 315.78 457.58 323.83 454.28 C 323.60 453.76 323.14 452.71 322.91 452.18 C 321.10 452.57 318.95 453.07 317.52 451.51 C 314.60 449.19 315.16 444.91 317.22 442.23 C 324.66 431.64 330.52 419.89 339.41 410.38 C 342.45 406.98 346.29 404.44 350.27 402.28 C 360.67 398.47 371.92 399.05 382.76 400.01 C 383.95 396.38 384.53 392.19 387.57 389.56 M 357.26 406.20 C 363.68 412.97 370.34 419.54 376.94 426.14 C 378.32 418.44 380.50 410.91 381.91 403.21 C 373.65 403.79 365.28 403.91 357.26 406.20 M 324.40 449.29 C 333.70 460.68 344.26 471.01 353.40 482.55 C 366.00 498.28 376.85 515.44 385.22 533.79 C 392.56 549.12 398.67 565.32 409.32 578.78 C 411.67 574.15 414.77 569.99 418.03 565.98 C 429.36 550.79 441.73 536.41 454.58 522.49 C 458.29 518.20 462.23 514.06 467.00 510.94 C 462.86 503.38 455.46 498.29 448.41 493.66 C 432.36 483.83 416.19 474.08 401.43 462.36 C 391.12 454.16 381.47 445.13 372.58 435.42 C 364.92 427.13 359.00 417.48 352.23 408.50 C 338.41 418.46 334.18 436.10 324.40 449.29 M 712.00 651.90 C 701.83 653.89 690.92 654.30 681.82 659.78 C 674.12 664.60 671.38 673.85 668.87 682.04 C 652.99 731.56 638.67 781.58 625.98 832.01 C 614.09 878.43 605.39 925.62 592.52 971.79 C 624.29 964.60 656.92 962.60 689.17 958.44 C 768.45 949.18 847.80 940.50 927.11 931.50 C 938.68 930.05 950.55 930.19 961.81 926.83 C 968.85 924.68 974.31 919.05 977.52 912.58 C 979.94 907.40 982.18 901.87 982.72 896.17 C 983.27 894.81 983.69 893.41 983.97 891.98 C 988.24 869.56 992.02 847.05 995.83 824.54 L 995.07 823.36 C 998.15 808.35 1001.12 793.33 1003.42 778.18 C 1007.81 751.47 1012.75 724.87 1017.50 698.23 C 1021.28 676.34 1026.06 654.57 1027.56 632.36 C 1028.04 632.16 1029.00 631.77 1029.48 631.58 C 1030.28 626.74 1031.22 621.93 1032.02 617.10 C 924.66 620.30 817.54 631.89 712.00 651.90 M 237.46 915.60 C 205.02 924.06 172.32 931.50 139.83 939.75 C 121.92 944.36 103.76 950.89 90.12 963.87 L 89.74 962.82 C 100.04 951.13 114.50 944.03 128.92 938.74 C 139.81 934.63 151.21 932.08 162.22 928.40 C 126.96 915.90 90.96 905.15 54.06 898.77 C 44.91 897.24 36.09 894.32 27.11 892.11 C 26.90 926.43 26.61 960.87 30.42 995.03 C 32.79 1015.71 38.73 1036.27 50.17 1053.82 C 57.28 1064.74 65.99 1074.90 76.85 1082.22 C 86.23 1088.55 97.82 1090.49 108.95 1090.29 C 138.12 1089.70 165.63 1078.25 191.26 1065.21 C 258.58 1029.94 326.19 995.20 393.73 960.34 C 393.72 960.13 393.69 959.73 393.68 959.53 C 385.30 952.97 380.55 942.98 377.50 933.03 C 373.91 921.01 371.90 908.53 371.35 896.01 C 371.17 890.57 372.17 885.18 372.52 879.77 C 327.50 891.72 282.57 904.00 237.46 915.60 M 14.92 891.94 C 13.32 893.55 11.01 893.70 8.86 893.80 C 7.92 895.45 7.43 897.56 8.75 899.20 C 12.34 904.14 18.49 905.90 23.68 908.60 C 24.02 902.92 24.70 897.28 25.33 891.63 C 21.93 891.35 17.70 889.10 14.92 891.94 M 575.32 912.26 C 577.70 916.77 579.12 922.03 577.79 927.10 C 576.92 931.36 573.85 935.31 569.49 936.33 C 562.86 937.86 556.11 935.69 549.98 933.27 C 538.91 928.87 529.05 920.97 516.90 919.65 C 508.51 918.75 501.13 923.42 494.05 927.18 C 484.76 931.85 474.45 935.13 463.96 934.72 C 462.53 934.68 461.18 934.98 459.90 935.62 C 462.36 936.97 465.41 936.35 468.07 937.15 C 505.66 944.70 539.27 966.60 577.92 969.64 C 581.91 970.13 586.12 969.29 589.93 970.88 C 592.03 953.52 594.39 936.19 596.34 918.81 C 588.97 917.81 582.68 913.26 575.32 912.26 M 666.30 977.51 C 664.23 1014.92 665.52 1052.56 670.91 1089.66 C 674.05 1090.16 675.63 1093.86 679.02 1093.51 C 685.16 1093.23 691.09 1091.10 696.59 1088.46 C 706.10 1083.51 714.76 1076.97 722.35 1069.39 C 727.02 1064.69 732.13 1060.25 735.48 1054.46 C 738.35 1049.48 739.23 1043.69 739.92 1038.08 C 741.13 1027.69 742.69 1017.34 744.49 1007.04 C 747.64 993.95 750.95 980.91 754.13 967.83 C 724.86 971.15 695.59 974.38 666.30 977.51 Z" />
<path fill="#050708" opacity="1.00" d=" M 444.62 567.50 L 445.98 567.12 C 451.94 574.27 454.04 584.46 462.03 589.99 C 467.94 594.52 476.37 593.07 482.12 597.86 C 484.76 600.00 487.03 603.72 485.40 607.13 C 484.87 608.73 482.66 609.92 481.25 608.65 C 479.14 605.96 477.71 602.28 474.04 601.40 C 467.38 599.80 459.84 598.43 455.41 592.66 C 452.18 585.83 449.31 578.84 446.15 571.98 C 445.57 570.52 444.65 569.11 444.62 567.50 Z" />
<path fill="#050708" opacity="1.00" d=" M 216.78 575.57 C 217.19 575.81 218.00 576.29 218.40 576.53 C 222.62 583.83 225.24 591.93 227.63 599.97 C 240.08 643.18 248.49 687.89 248.48 732.98 C 248.87 736.81 242.01 737.94 241.58 733.95 C 235.33 694.65 229.97 655.20 222.76 616.06 C 220.80 602.56 218.33 589.12 216.78 575.57 Z" />
<path fill="#050708" opacity="1.00" d=" M 279.81 594.85 C 280.34 594.88 281.38 594.93 281.90 594.96 C 295.08 626.58 299.40 662.56 290.94 695.98 C 289.98 699.91 283.54 698.76 283.34 694.99 C 282.21 661.61 280.77 628.23 279.81 594.85 Z" />
<path fill="#050708" opacity="1.00" d=" M 850.19 742.11 C 852.15 740.26 855.43 741.13 856.67 743.40 C 862.58 751.57 869.91 759.91 870.26 770.53 C 874.78 770.96 879.37 773.19 881.59 777.31 C 882.94 779.63 882.96 782.37 883.08 784.98 C 888.67 786.03 894.17 789.07 897.12 794.07 C 899.89 798.93 898.99 805.21 895.75 809.62 C 890.04 818.03 880.11 822.31 870.47 824.29 C 861.10 826.07 851.45 826.37 841.97 825.43 C 833.73 824.49 825.03 822.00 819.32 815.63 C 816.13 812.20 813.98 807.19 815.66 802.54 C 817.93 796.40 823.78 792.60 829.35 789.74 C 827.05 787.14 825.44 783.47 826.92 780.06 C 829.09 774.42 835.11 772.07 839.57 768.60 C 845.91 763.54 850.50 755.36 849.19 747.06 C 849.00 745.37 848.61 743.29 850.19 742.11 M 838.35 778.49 C 836.37 779.68 833.71 780.69 833.10 783.18 C 835.16 787.48 840.42 789.05 844.64 790.47 C 841.24 793.38 836.44 793.01 832.39 792.22 C 829.54 795.11 826.70 798.04 824.14 801.20 C 821.77 804.10 822.32 808.52 824.98 811.05 C 829.42 815.56 835.87 817.26 841.96 818.04 C 849.65 818.88 857.46 818.65 865.14 817.75 C 873.81 816.55 882.79 813.44 888.69 806.68 C 890.57 804.37 892.46 801.06 890.89 798.10 C 888.80 794.58 884.31 794.27 880.71 793.55 C 878.37 797.51 874.92 801.55 870.04 802.02 C 867.09 802.59 864.45 798.29 867.06 796.31 C 870.77 793.79 874.65 790.65 875.49 785.96 C 876.56 782.31 873.80 778.08 870.01 777.74 C 868.02 777.83 866.94 779.97 865.03 780.28 C 863.41 780.36 861.91 779.27 861.28 777.84 C 861.30 770.37 857.98 763.37 856.55 756.10 C 854.04 765.73 847.13 773.92 838.35 778.49 Z" />
<path fill="#050708" opacity="1.00" d=" M 550.56 842.88 C 557.97 841.94 565.69 841.44 572.97 843.56 C 578.11 844.98 582.50 848.11 586.98 850.89 C 593.22 855.00 599.47 859.63 603.48 866.06 C 604.65 867.38 602.57 869.35 601.19 868.49 C 591.33 866.02 584.17 858.33 575.69 853.25 C 568.58 849.06 559.99 849.15 552.04 849.93 C 537.26 851.17 522.52 853.03 508.02 856.13 C 502.33 856.99 496.55 858.88 490.80 858.37 L 490.39 856.96 C 508.99 847.54 530.34 846.48 550.56 842.88 Z" />
<path fill="#050708" opacity="1.00" d=" M 553.99 871.10 C 560.56 869.50 567.95 869.23 573.96 872.77 C 581.18 876.94 584.92 885.61 592.99 888.53 C 595.20 889.44 599.28 888.63 599.40 892.05 C 598.87 894.93 595.21 894.69 592.97 894.75 C 586.33 894.42 581.57 889.15 577.32 884.64 C 573.33 880.27 568.28 876.10 562.05 876.02 C 553.63 875.94 545.37 877.88 537.06 878.97 C 527.35 880.21 517.61 881.13 507.86 882.06 C 506.88 882.24 505.91 882.00 504.99 881.71 C 521.06 877.06 537.68 874.70 553.99 871.10 Z" />
<path fill="#050708" opacity="1.00" d=" M 438.16 978.29 C 440.78 975.94 442.50 972.42 445.82 970.99 C 445.85 973.55 445.51 976.16 444.48 978.54 C 438.51 992.44 431.24 1005.74 423.86 1018.94 C 411.83 1040.25 398.52 1061.04 382.14 1079.30 C 379.09 1082.28 374.02 1077.52 376.09 1074.09 C 388.87 1049.37 404.81 1026.50 420.29 1003.43 C 426.19 995.01 431.49 986.12 438.16 978.29 Z" />
</g>
<g id="#ffffffff">
<path fill="#ffffff" opacity="1.00" d=" M 260.05 111.97 C 264.96 98.10 271.93 84.63 282.07 73.86 C 273.62 85.89 266.35 98.70 260.05 111.97 Z" />
<path fill="#ffffff" opacity="1.00" d=" M 597.93 490.21 C 612.82 493.24 626.77 499.82 640.07 507.00 C 625.87 501.80 611.58 496.76 597.93 490.21 Z" />
</g>
</svg>
